<?xml version="1.0" standalone="no"?><!DOCTYPE svg PUBLIC "-//W3C//DTD SVG 1.1//EN" "http://www.w3.org/Graphics/SVG/1.1/DTD/svg11.dtd"><svg t="1574304705001" class="icon" viewBox="0 0 1152 1024" version="1.1" xmlns="http://www.w3.org/2000/svg" p-id="10595" xmlns:xlink="http://www.w3.org/1999/xlink" width="28.125" height="25"><defs><style type="text/css"></style></defs><path d="M883 79.6C865.8 50.2 834.2 32 800 32H352c-34.2 0-65.8 18.2-83 47.6l-224 384c-17.4 29.8-17.4 66.8 0 96.8l224 384c17.2 29.4 48.8 47.6 83 47.6h448c34.2 0 65.8-18.2 83-47.6l224-384c17.4-29.8 17.4-66.8 0-96.8l-224-384z m168.6 448.6l-224 384c-5.8 9.8-16.4 15.8-27.6 15.8H352c-11.4 0-22-6-27.6-15.8l-224-384c-5.8-10-5.8-22.4 0-32.2l224-384c5.6-10 16.2-16 27.6-16h448c11.4 0 22 6 27.6 15.8l224 384c5.8 10 5.8 22.4 0 32.4z" p-id="10596"></path></svg>