<?xml version="1.0" standalone="no"?><!DOCTYPE svg PUBLIC "-//W3C//DTD SVG 1.1//EN" "http://www.w3.org/Graphics/SVG/1.1/DTD/svg11.dtd"><svg t="1574304976532" class="icon" viewBox="0 0 1024 1024" version="1.1" xmlns="http://www.w3.org/2000/svg" p-id="19732" xmlns:xlink="http://www.w3.org/1999/xlink" width="25" height="25"><defs><style type="text/css"></style></defs><path d="M928 2H98c-52.944 0-96 43.056-96 96V928c0 52.944 43.056 96 96 96H928c52.944 0 96-43.056 96-96V98c0-52.944-43.056-96-96-96zM960 928c0 17.648-14.352 32-32 32H98c-17.648 0-32-14.352-32-32V98c0-17.648 14.352-32 32-32H928c17.648 0 32 14.352 32 32V928z" p-id="19733"></path><path d="M102 651.344h40.96v166.64h-40.96zM176.656 818h40.96v-64.368h61.792v-36.528h-61.792v-29.248h72.32v-36.512h-113.28zM439.056 704.944c0-27.392-19.92-53.6-56.88-53.6H316.16v166.64h40.96v-62.032h13.808l29.488 62.032h47.52l-36.048-69.52c13.104-6.544 27.168-20.816 27.168-43.52z m-58.768 16.848H357.12v-33.712h23.168c11.232 0 17.792 8.208 17.792 16.864s-6.544 16.848-17.792 16.848zM512.528 651.344l-60.624 166.64h42.848l8.192-24.8h51.248l7.728 24.8h42.848l-60.64-166.64h-31.6z m1.888 107.664l14.976-44.464 14.048 44.464h-29.024zM699.328 724.832l-37.456-73.488H621.6v166.656h40.976v-79.824l23.616 41.2h26.24l23.616-41.2v79.824h40.976V651.344h-40.256zM810.704 818h113.296v-36.512h-72.32v-29.264h61.792v-36.512H851.68v-27.856h72.32v-36.512h-113.296zM337.68 526.432c6.24 6.256 14.432 9.376 22.624 9.376s16.384-3.12 22.624-9.376a32 32 0 0 0 0-45.248l-102.656-102.656 102.656-102.656a32 32 0 1 0-45.248-45.248l-114.496 114.496a47.312 47.312 0 0 0 0 66.816l114.496 114.496zM802.816 345.12l-114.48-114.496a32 32 0 1 0-45.248 45.264l102.64 102.656-102.64 102.656a32 32 0 0 0 45.248 45.248l114.448-114.464c8.96-8.928 13.872-20.8 13.872-33.44s-4.928-24.528-13.84-33.424zM485.76 580.608a31.968 31.968 0 0 0 36.88-26.208l57.792-341.056a32 32 0 0 0-26.208-36.896 31.888 31.888 0 0 0-36.896 26.208l-57.792 341.056a32.032 32.032 0 0 0 26.224 36.896z" p-id="19734"></path></svg>